<svg xmlns="http://www.w3.org/2000/svg" xmlns:xlink="http://www.w3.org/1999/xlink" width="559" zoomAndPan="magnify" viewBox="0 0 419.25 595.499986" height="794" preserveAspectRatio="xMidYMid meet" version="1.0"><defs><clipPath id="952c13def2"><path d="M 0 0.28125 L 418.5 0.28125 L 418.5 594.71875 L 0 594.71875 Z M 0 0.28125 " clip-rule="nonzero"/></clipPath><clipPath id="2ae02decfa"><path d="M 0 0.28125 L 418.222656 0.28125 L 418.222656 594.324219 L 0 594.324219 Z M 0 0.28125 " clip-rule="nonzero"/></clipPath><clipPath id="8412c9e9e1"><path d="M 322 96.746094 L 418.5 96.746094 L 418.5 274 L 322 274 Z M 322 96.746094 " clip-rule="nonzero"/></clipPath><clipPath id="e95e95172e"><path d="M 0 450 L 46 450 L 46 594.71875 L 0 594.71875 Z M 0 450 " clip-rule="nonzero"/></clipPath><clipPath id="9951c3637f"><path d="M 73.730469 498.957031 L -11.511719 643.246094 L -164.820312 552.675781 L -79.578125 408.386719 Z M 73.730469 498.957031 " clip-rule="nonzero"/></clipPath><clipPath id="00f8b04138"><path d="M 73.730469 498.957031 L -11.511719 643.246094 L -164.820312 552.675781 L -79.578125 408.386719 Z M 73.730469 498.957031 " clip-rule="nonzero"/></clipPath><clipPath id="9b0f63cf06"><path d="M 0 0.28125 L 135 0.28125 L 135 119 L 0 119 Z M 0 0.28125 " clip-rule="nonzero"/></clipPath><clipPath id="08ff6fb1e2"><path d="M -88.3125 -104.605469 L 143.953125 -90.734375 L 130.886719 128.089844 L -101.378906 114.21875 Z M -88.3125 -104.605469 " clip-rule="nonzero"/></clipPath><clipPath id="a73188f981"><path d="M -88.3125 -104.605469 L 143.953125 -90.734375 L 130.886719 128.089844 L -101.378906 114.21875 Z M -88.3125 -104.605469 " clip-rule="nonzero"/></clipPath><clipPath id="e771921c81"><path d="M 365 538 L 418.5 538 L 418.5 594.71875 L 365 594.71875 Z M 365 538 " clip-rule="nonzero"/></clipPath><clipPath id="d52b16b593"><path d="M 373.496094 533.144531 L 540.40625 548.207031 L 524.402344 725.550781 L 357.492188 710.488281 Z M 373.496094 533.144531 " clip-rule="nonzero"/></clipPath><clipPath id="de0e010336"><path d="M 373.496094 533.144531 L 540.40625 548.207031 L 524.402344 725.550781 L 357.492188 710.488281 Z M 373.496094 533.144531 " clip-rule="nonzero"/></clipPath><clipPath id="6302104b29"><rect x="0" width="419" y="0" height="595"/></clipPath></defs><g clip-path="url(#952c13def2)"><path fill="#ffffff" d="M 0 0.28125 L 418.5 0.28125 L 418.5 594.71875 L 0 594.71875 Z M 0 0.28125 " fill-opacity="1" fill-rule="nonzero"/><g transform="matrix(1, 0, 0, 1, 0, -0.000000000000053457)"><g clip-path="url(#6302104b29)"><g clip-path="url(#2ae02decfa)"><path fill="#6583c8" d="M 0 0.28125 L 418.222656 0.28125 L 418.222656 594.324219 L 0 594.324219 Z M 0 0.28125 " fill-opacity="1" fill-rule="nonzero"/></g><g clip-path="url(#8412c9e9e1)"><path fill="#2e4272" d="M 469.574219 159.636719 C 470.007812 158.746094 470.519531 157.898438 471.097656 157.09375 C 473.421875 154.253906 476.152344 151.734375 478.582031 148.988281 C 481.710938 145.457031 484.347656 141.664062 485.84375 137.15625 C 489.117188 127.28125 485.039062 116.558594 478.226562 109.238281 C 474.996094 105.769531 470.886719 102.898438 466.316406 101.546875 C 462.140625 100.316406 457.515625 100.683594 453.464844 102.1875 C 449.507812 103.660156 445.980469 105.859375 442.59375 108.351562 C 441.558594 109.117188 440.539062 109.898438 439.539062 110.703125 C 439.226562 110.683594 438.910156 110.65625 438.59375 110.625 C 433.921875 109.890625 429.414062 108.660156 424.9375 107.117188 C 420.226562 105.488281 415.601562 103.621094 410.875 102.035156 C 406.953125 100.714844 402.925781 99.632812 398.890625 98.714844 C 394.429688 97.703125 389.832031 96.976562 385.25 96.925781 C 376.222656 96.832031 365.894531 100.238281 361.6875 108.90625 C 359.75 112.898438 359.140625 117.265625 359.085938 121.667969 C 359.039062 125.457031 359.539062 129.25 359.25 133.03125 C 359.238281 133.214844 359.21875 133.398438 359.199219 133.582031 C 358.988281 134.835938 358.675781 136.058594 358.234375 137.246094 C 357.757812 138.246094 357.195312 139.191406 356.554688 140.09375 C 355.238281 141.675781 353.71875 143.0625 352.109375 144.34375 C 345.523438 149.335938 338.441406 153.710938 332.742188 159.78125 C 326.390625 166.550781 321.730469 175.695312 322.125 185.171875 C 322.523438 194.640625 327.644531 203.148438 334.359375 209.570312 C 337.542969 212.617188 341.144531 215.1875 344.941406 217.417969 C 348.46875 219.492188 352.125 221.34375 355.632812 223.457031 C 357.164062 224.378906 358.660156 225.359375 360.09375 226.425781 C 361.734375 227.75 363.238281 229.203125 364.589844 230.824219 C 365.066406 231.503906 365.484375 232.21875 365.84375 232.96875 C 366.253906 234.09375 366.542969 235.25 366.742188 236.429688 C 367.144531 240.292969 366.824219 244.1875 367.078125 248.058594 C 367.375 252.589844 368.582031 257.042969 370.988281 260.925781 C 375.316406 267.90625 382.941406 272.125 390.929688 273.378906 C 399.664062 274.746094 408.632812 273.589844 416.683594 269.9375 C 425.042969 266.152344 431.738281 258.460938 433.324219 249.3125 C 434.476562 242.667969 433.464844 235.957031 434.179688 229.296875 C 434.320312 228.492188 434.519531 227.703125 434.792969 226.933594 C 435.027344 226.453125 435.296875 225.992188 435.59375 225.550781 C 435.972656 225.117188 436.382812 224.714844 436.816406 224.339844 C 437.628906 223.78125 438.492188 223.304688 439.386719 222.890625 C 443.828125 221.164062 448.683594 220.621094 453.371094 219.972656 C 455.988281 219.609375 458.605469 219.242188 461.191406 218.71875 C 464.050781 218.140625 466.742188 217.265625 469.425781 216.128906 C 474.914062 213.800781 479.0625 209.183594 480.703125 203.445312 C 482.730469 196.355469 480.589844 189.257812 477.507812 182.847656 C 475.304688 178.265625 472.515625 173.980469 470.457031 169.328125 C 469.820312 167.730469 469.296875 166.085938 468.996094 164.390625 C 468.917969 163.535156 468.910156 162.675781 468.976562 161.820312 C 469.117188 161.078125 469.316406 160.347656 469.574219 159.636719 Z M 366.550781 156.457031 C 366.5625 156.417969 366.574219 156.382812 366.585938 156.347656 C 366.589844 156.414062 366.597656 156.476562 366.601562 156.542969 C 366.585938 156.515625 366.566406 156.484375 366.550781 156.457031 Z M 380.855469 256.539062 C 380.769531 256.414062 380.683594 256.292969 380.601562 256.167969 C 380.875 256.523438 381.160156 256.875 381.449219 257.214844 C 381.246094 256.996094 381.050781 256.769531 380.855469 256.539062 Z M 464.96875 132.632812 C 464.96875 132.554688 464.972656 132.480469 464.976562 132.402344 C 465.058594 132.3125 465.136719 132.222656 465.21875 132.132812 C 465.136719 132.300781 465.054688 132.46875 464.96875 132.632812 Z M 464.96875 132.632812 " fill-opacity="1" fill-rule="nonzero"/></g><g clip-path="url(#e95e95172e)"><g clip-path="url(#9951c3637f)"><g clip-path="url(#00f8b04138)"><path fill="#2e4272" d="M -55.617188 594.257812 C -55.070312 595.085938 -54.601562 595.957031 -54.203125 596.863281 C -52.941406 600.308594 -52.160156 603.941406 -51.035156 607.429688 C -49.582031 611.921875 -47.660156 616.117188 -44.535156 619.699219 C -37.699219 627.542969 -26.390625 629.484375 -16.628906 627.34375 C -11.996094 626.324219 -7.433594 624.25 -3.945312 621 C -0.761719 618.027344 1.273438 613.863281 2.039062 609.609375 C 2.785156 605.453125 2.6875 601.296875 2.257812 597.113281 C 2.128906 595.832031 1.976562 594.558594 1.789062 593.289062 C 1.96875 593.027344 2.148438 592.769531 2.335938 592.515625 C 5.347656 588.867188 8.699219 585.609375 12.304688 582.542969 C 16.101562 579.3125 20.0625 576.28125 23.832031 573.019531 C 26.964844 570.316406 29.945312 567.398438 32.785156 564.390625 C 35.925781 561.0625 38.894531 557.476562 41.265625 553.554688 C 45.941406 545.832031 48.257812 535.207031 42.9375 527.175781 C 40.484375 523.472656 37.035156 520.730469 33.269531 518.441406 C 30.035156 516.476562 26.511719 514.976562 23.402344 512.804688 C 23.253906 512.699219 23.101562 512.589844 22.953125 512.480469 C 21.984375 511.664062 21.089844 510.769531 20.292969 509.785156 C 19.671875 508.867188 19.144531 507.902344 18.695312 506.890625 C 18.003906 504.953125 17.578125 502.941406 17.296875 500.902344 C 16.347656 492.691406 16.183594 484.371094 13.855469 476.375 C 11.261719 467.464844 5.757812 458.800781 -2.601562 454.320312 C -10.957031 449.847656 -20.886719 449.929688 -29.832031 452.441406 C -34.074219 453.636719 -38.121094 455.429688 -41.972656 457.5625 C -45.554688 459.542969 -49.003906 461.75 -52.609375 463.695312 C -54.179688 464.542969 -55.785156 465.332031 -57.433594 466.027344 C -59.410156 466.765625 -61.425781 467.320312 -63.507812 467.660156 C -64.335938 467.722656 -65.164062 467.71875 -65.992188 467.652344 C -67.167969 467.429688 -68.3125 467.089844 -69.429688 466.660156 C -72.960938 465.046875 -76.152344 462.785156 -79.613281 461.035156 C -83.664062 458.988281 -88.113281 457.761719 -92.679688 457.859375 C -100.894531 458.035156 -108.402344 462.453125 -113.542969 468.695312 C -119.164062 475.519531 -122.730469 483.828125 -123.683594 492.617188 C -124.671875 501.738281 -121.457031 511.417969 -114.386719 517.4375 C -109.253906 521.808594 -102.960938 524.347656 -97.589844 528.355469 C -96.96875 528.882812 -96.390625 529.457031 -95.867188 530.082031 C -95.574219 530.527344 -95.3125 530.992188 -95.085938 531.476562 C -94.90625 532.023438 -94.765625 532.578125 -94.664062 533.144531 C -94.59375 534.128906 -94.621094 535.113281 -94.722656 536.09375 C -95.496094 540.796875 -97.496094 545.253906 -99.324219 549.621094 C -100.34375 552.054688 -101.359375 554.496094 -102.222656 556.988281 C -103.179688 559.746094 -103.796875 562.507812 -104.179688 565.398438 C -104.96875 571.308594 -103.101562 577.226562 -98.996094 581.558594 C -93.925781 586.910156 -86.722656 588.675781 -79.636719 589.28125 C -74.574219 589.714844 -69.464844 589.496094 -64.410156 590.089844 C -62.710938 590.355469 -61.027344 590.738281 -59.414062 591.339844 C -58.640625 591.710938 -57.894531 592.140625 -57.191406 592.632812 C -56.625 593.132812 -56.101562 593.675781 -55.617188 594.257812 Z M -0.476562 507.175781 C -0.449219 507.203125 -0.425781 507.234375 -0.402344 507.261719 C -0.460938 507.234375 -0.519531 507.203125 -0.578125 507.175781 C -0.542969 507.175781 -0.511719 507.175781 -0.476562 507.175781 Z M -93.921875 468.585938 C -93.769531 468.574219 -93.621094 468.5625 -93.472656 468.554688 C -93.917969 468.609375 -94.363281 468.675781 -94.808594 468.753906 C -94.515625 468.691406 -94.21875 468.636719 -93.921875 468.585938 Z M -30.023438 604.027344 C -29.960938 604.070312 -29.894531 604.109375 -29.832031 604.152344 C -29.792969 604.265625 -29.757812 604.382812 -29.71875 604.5 C -29.824219 604.34375 -29.925781 604.1875 -30.023438 604.027344 Z M -30.023438 604.027344 " fill-opacity="1" fill-rule="nonzero"/></g></g></g><g clip-path="url(#9b0f63cf06)"><g clip-path="url(#08ff6fb1e2)"><g clip-path="url(#a73188f981)"><path fill="#2e4272" d="M -57.519531 -87.824219 C -66.792969 -79.644531 -71.402344 -66.492188 -69.265625 -54.316406 C -66.820312 -40.402344 -56.34375 -27.875 -58.109375 -13.863281 C -60.15625 2.355469 -77.082031 11.71875 -86.796875 24.863281 C -94.296875 35.011719 -97.554688 48.453125 -94.460938 60.683594 C -91.363281 72.917969 -81.601562 83.496094 -69.367188 86.5625 C -55.304688 90.089844 -40.316406 83.925781 -26.09375 86.71875 C -13.085938 89.269531 -2.800781 98.800781 7.824219 106.726562 C 18.445312 114.648438 31.8125 121.527344 44.496094 117.6875 C 60.789062 112.753906 67.246094 93.390625 79.855469 81.960938 C 88.625 74.011719 100.214844 70.109375 110.710938 64.632812 C 121.207031 59.15625 131.535156 50.828125 133.675781 39.183594 C 137.140625 20.355469 118.347656 5.1875 112.953125 -13.179688 C 108.992188 -26.644531 112.488281 -41.378906 108.949219 -54.960938 C 102.644531 -79.152344 75.960938 -92.546875 51.085938 -95.046875 C 30.65625 -97.101562 10.441406 -93.132812 -9.945312 -93.851562 C -27.082031 -94.457031 -42.703125 -100.894531 -57.519531 -87.824219 Z M -57.519531 -87.824219 " fill-opacity="1" fill-rule="nonzero"/></g></g></g><g clip-path="url(#e771921c81)"><g clip-path="url(#d52b16b593)"><g clip-path="url(#de0e010336)"><path fill="#2e4272" d="M 515.089844 609.066406 C 515.601562 608.21875 516.1875 607.421875 516.835938 606.671875 C 519.402344 604.054688 522.351562 601.789062 525.019531 599.273438 C 528.453125 596.039062 531.417969 592.496094 533.3125 588.140625 C 537.460938 578.597656 534.363281 567.550781 528.238281 559.652344 C 525.332031 555.90625 521.496094 552.675781 517.0625 550.921875 C 513.015625 549.320312 508.378906 549.269531 504.210938 550.40625 C 500.132812 551.515625 496.425781 553.386719 492.828125 555.566406 C 491.726562 556.234375 490.640625 556.921875 489.574219 557.632812 C 489.261719 557.585938 488.953125 557.53125 488.640625 557.46875 C 484.054688 556.320312 479.671875 554.691406 475.355469 552.75 C 470.808594 550.703125 466.371094 548.429688 461.808594 546.421875 C 458.019531 544.757812 454.105469 543.316406 450.167969 542.042969 C 445.816406 540.632812 441.304688 539.492188 436.746094 539.03125 C 427.761719 538.125 417.171875 540.59375 412.199219 548.847656 C 409.910156 552.648438 408.910156 556.941406 408.460938 561.324219 C 408.074219 565.089844 408.230469 568.914062 407.605469 572.65625 C 407.574219 572.839844 407.539062 573.019531 407.503906 573.199219 C 407.183594 574.425781 406.757812 575.617188 406.210938 576.761719 C 405.648438 577.714844 405.003906 578.605469 404.28125 579.445312 C 402.832031 580.902344 401.195312 582.148438 399.476562 583.28125 C 392.464844 587.660156 385.019531 591.378906 378.796875 596.914062 C 371.863281 603.082031 366.398438 611.773438 365.945312 621.246094 C 365.488281 630.714844 369.824219 639.644531 375.933594 646.644531 C 378.832031 649.96875 382.1875 652.851562 385.765625 655.414062 C 389.09375 657.796875 392.570312 659.96875 395.871094 662.386719 C 397.316406 663.445312 398.714844 664.554688 400.050781 665.746094 C 401.566406 667.210938 402.929688 668.796875 404.128906 670.53125 C 404.542969 671.253906 404.898438 672 405.191406 672.78125 C 405.496094 673.9375 405.679688 675.113281 405.769531 676.308594 C 405.828125 680.191406 405.15625 684.042969 405.0625 687.921875 C 404.949219 692.457031 405.753906 697.003906 407.800781 701.085938 C 411.484375 708.429688 418.695312 713.316406 426.542969 715.28125 C 435.117188 717.429688 444.152344 717.082031 452.5 714.171875 C 461.164062 711.148438 468.527344 704.089844 470.929688 695.121094 C 472.671875 688.609375 472.265625 681.832031 473.578125 675.265625 C 473.792969 674.476562 474.058594 673.707031 474.398438 672.964844 C 474.679688 672.511719 474.988281 672.074219 475.324219 671.660156 C 475.742188 671.265625 476.183594 670.902344 476.648438 670.566406 C 477.507812 670.082031 478.410156 669.683594 479.339844 669.351562 C 483.917969 668.035156 488.804688 667.925781 493.53125 667.703125 C 496.167969 667.578125 498.804688 667.449219 501.433594 667.160156 C 504.332031 666.839844 507.089844 666.210938 509.867188 665.320312 C 515.542969 663.496094 520.085938 659.265625 522.238281 653.699219 C 524.894531 646.824219 523.398438 639.558594 520.90625 632.898438 C 519.121094 628.136719 516.730469 623.617188 515.097656 618.800781 C 514.605469 617.148438 514.234375 615.464844 514.085938 613.75 C 514.085938 612.890625 514.152344 612.035156 514.296875 611.1875 C 514.503906 610.460938 514.769531 609.753906 515.089844 609.066406 Z M 412.769531 596.640625 C 412.785156 596.605469 412.796875 596.570312 412.8125 596.535156 C 412.8125 596.601562 412.8125 596.667969 412.8125 596.734375 C 412.796875 596.703125 412.78125 596.671875 412.769531 596.640625 Z M 418.023438 697.601562 C 417.945312 697.472656 417.871094 697.34375 417.800781 697.210938 C 418.042969 697.589844 418.292969 697.964844 418.550781 698.332031 C 418.371094 698.09375 418.195312 697.851562 418.023438 697.601562 Z M 512.929688 581.757812 C 512.9375 581.683594 512.949219 581.609375 512.957031 581.53125 C 513.046875 581.449219 513.136719 581.367188 513.222656 581.28125 C 513.128906 581.445312 513.03125 581.601562 512.929688 581.757812 Z M 512.929688 581.757812 " fill-opacity="1" fill-rule="nonzero"/></g></g></g></g></g></g></svg>